Nelly - Move That Body (Feat. T-Pain & Akon)

A music video was shot on October 6. The video premiered on October 19 on VEVO. In the sizzling clip, the St. Louis rapper makes his way to an underground fight-style dance club, meeting up with Akon and T-Pain who hedge bets with T.I., Yo Gotti, Bangladesh and Jermaine Dupri on the sidelines as the ladies throw it down. The video was directed by Marc Klasfeld.

   General Info :
      Complete name : Nelly - Move That Body (Feat. T-Pain & Akon) (2010).mp4
      Format : MPEG-4
      Format profile : Base Media / Version 2
      Codec ID : mp42
      File size : 34.7 MiB
      Duration : 3mn 25s
      Overall bit rate : 1416 Kbps

   Video Info :
      Format/Info : Advanced Video Codec
      Format profile : Main@L5.1
      Format settings, CABAC : Yes
      Format settings, ReFrames : 1 frame
      Codec ID : avc1
      Codec ID/Info : Advanced Video Coding
      Duration : 3mn 25s
      Bit rate mode : Variable
      Bit rate : 1222 Kbps
      Width : 920 pixels
      Height : 408 pixels
      Display aspect ratio : 2.25:1
      Frame rate mode : Constant
      Frame rate : 23.976 fps
      Resolution : 24 bits
      Colorimetry : 4:2:0
      Scan type : Progressive
      Bits/(Pixel*Frame) : 0.136
      Stream size : 29.9 MiB (86%)
      Encoded date : UTC 2011-01-28 11:07:05
      Tagged date : UTC 2011-01-28 11:07:05

   Audio Info :
      Format : AAC
      Format/Info : Advanced Audio Codec
      Format version : Version 4
      Format profile : LC
      Format settings, SBR : No
      Codec ID : 40
      Duration : 3mn 25s
      Bit rate mode : Constant
      Bit rate : 192 Kbps
      Channel(s) : 2 channels
      Channel positions : L R
      Sampling rate : 44.1 KHz
      Resolution : 16 bits
      Stream size : 4.64 MiB (13%)